<svg width="14" height="10" viewBox="0 0 14 10" fill="none" xmlns="http://www.w3.org/2000/svg">
<path fill-rule="evenodd" clip-rule="evenodd" d="M14 5.00002C14 4.86741 13.9473 4.74024 13.8535 4.64647C13.7598 4.5527 13.6326 4.50002 13.5 4.50002H1.70698L4.85398 1.35402C4.90047 1.30753 4.93734 1.25234 4.9625 1.1916C4.98766 1.13087 5.00061 1.06577 5.00061 1.00002C5.00061 0.934277 4.98766 0.869177 4.9625 0.808438C4.93734 0.747698 4.90047 0.692509 4.85398 0.646021C4.80749 0.599533 4.7523 0.562657 4.69156 0.537498C4.63082 0.512339 4.56572 0.49939 4.49998 0.49939C4.43423 0.49939 4.36913 0.512339 4.30839 0.537498C4.24766 0.562657 4.19247 0.599533 4.14598 0.646021L0.145978 4.64602C0.099415 4.69247 0.0624722 4.74764 0.0372657 4.80839C0.0120593 4.86913 -0.000915527 4.93425 -0.000915527 5.00002C-0.000915527 5.06579 0.0120593 5.13091 0.0372657 5.19165C0.0624722 5.2524 0.099415 5.30758 0.145978 5.35402L4.14598 9.35402C4.19247 9.40051 4.24766 9.43739 4.30839 9.46254C4.36913 9.4877 4.43423 9.50065 4.49998 9.50065C4.56572 9.50065 4.63082 9.4877 4.69156 9.46254C4.7523 9.43739 4.80749 9.40051 4.85398 9.35402C4.90047 9.30753 4.93734 9.25234 4.9625 9.1916C4.98766 9.13087 5.00061 9.06576 5.00061 9.00002C5.00061 8.93428 4.98766 8.86918 4.9625 8.80844C4.93734 8.7477 4.90047 8.69251 4.85398 8.64602L1.70698 5.50002H13.5C13.6326 5.50002 13.7598 5.44734 13.8535 5.35357C13.9473 5.25981 14 5.13263 14 5.00002Z" fill="black"/>
</svg>
